<?xml version="1.0" encoding="utf-8"?>
<!-- Generator: Adobe Illustrator 22.1.0, SVG Export Plug-In . SVG Version: 6.00 Build 0)  -->
<svg version="1.1" id="Layer_1" xmlns="http://www.w3.org/2000/svg" xmlns:xlink="http://www.w3.org/1999/xlink" x="0px" y="0px"
	 viewBox="0 0 18000 18000" style="enable-background:new 0 0 356 356;" xml:space="preserve">
<style type="text/css">
	.st0{fill:#ED1C24;}
	.st1{fill:#FFFFFF;}
</style>
<g>
	<g>
		<circle class="st0" cx="177" cy="178" r="166.5"/>
	</g>
	<circle class="st1" cx="132.7" cy="92.9" r="33.2"/>
	<circle class="st1" cx="220.2" cy="271" r="31.5"/>
	<circle class="st1" cx="263.1" cy="163.8" r="54.3"/>
	<circle class="st1" cx="177.9" cy="145" r="18.8"/>
	<circle class="st1" cx="132.7" cy="233.3" r="33.2"/>
	<g>
		<path class="st1" d="M86.4,201.9c0-26.5-21.5-48.1-48.1-48.1c-10,0-19.4,3.1-27.1,8.4c-0.5,5.2-0.8,10.5-0.8,15.8
			c0,25.1,5.6,49,15.6,70.3c3.9,1,8,1.6,12.3,1.6C64.9,249.9,86.4,228.4,86.4,201.9z"/>
		<path class="st1" d="M331.3,240.6c-23.3,4.8-40.9,25.4-40.9,50.1c0,2.9,0.3,5.7,0.7,8.5C308.4,282.9,322.2,263,331.3,240.6z"/>
		<path class="st1" d="M216.1,34.8c8.8,0,16.5-5.1,20.1-12.5c-13.5-5.1-27.7-8.6-42.6-10c0,0,0,0,0,0
			C193.6,24.8,203.7,34.8,216.1,34.8z"/>
	</g>
</g>
</svg>
