<?xml version="1.0" encoding="utf-8"?>
<!-- Generator: Adobe Illustrator 22.1.0, SVG Export Plug-In . SVG Version: 6.00 Build 0)  -->
<svg version="1.1" id="Layer_1" xmlns="http://www.w3.org/2000/svg" xmlns:xlink="http://www.w3.org/1999/xlink" x="0px" y="0px"
	 viewBox="0 0 576 576" style="enable-background:new 0 0 576 576;" xml:space="preserve">
<style type="text/css">
	.st0{fill:#BCD97A;}
	.st1{opacity:0.2;fill:#FFFFFF;}
</style>
<g>
	<path class="st0" d="M560.1,178.4c-20.2-6.9-40.5-13.3-61-19.5c-17.4-5.3-33.1-1.6-47,10.1c-9.9,8.4-19.6,17.1-29.8,25.3
		c-4.4,3.5-9.7,6-15.7,9.7c-3-2.3-16.2-15.6-35.8-28.9c2.3,1.2,4.6,2.5,6.9,3.8c3.3-29.7-9-52.8-27.3-73.5c2.5-4.3,4.1-7.7,6.2-10.7
		c11.8-16.5,27.6-27.9,46.4-35.3c14.6-5.7,30-7.4,45.6-7.3c11.2,0.1,22.4,0,35.1,0c6.4,0.3,7.2-16.2,0.8-16.5
		c-24.2-3.3-46.7-2.6-68.9,1.5c-34.7,6.4-61.3,25.6-79.7,54.4c-16.9-3.4-32.3-9-47.7-8.9c-15.4,0-30.8,5.7-47.3,9.1
		c-33.8-55-87.6-60.3-144.4-57.1c-6.4,6.6-6.1,11.8,0.9,17.5c5.1,0,10.9-0.2,16.8,0c13.4,0.5,27,0.1,40.1,2.2
		c25.8,4,47.5,16.1,63.4,37.2c3.6,4.7,5.3,10.8,7.8,16.3c-19.2,20.4-28.5,42.8-26.2,70.6c-13.2,10-20.6,18.4-20.6,18.4
		c-10.2,8-14.3,7.9-24.2-0.5c-10.6-9-20.9-18.1-31.4-27.3c-13.4-11.7-28.8-15-45.7-10c-20.8,6.2-41.7,12.5-62.3,19.4
		c-4.3,1.5-7.6,5.9-11.4,9c0,3.4,0,6.7,0,10.1c2.8,2.4,5.5,4.8,9.4,8.2c4.1-0.7,9-1.1,13.7-2.5c17.6-5.5,35-11.4,52.6-16.9
		c9.7-3.1,19.3-2.6,27.2,4.4c12.5,11.2,24.8,22.7,36.8,34.5c6.1,6,7.6,13,5.1,21.9c-3.2,11.2-4.7,22.9-6.3,34.5
		c-1.8,13.1-8.1,19-21.6,19.3c-4.6,0.1-9.2,0-13.9,0c-21,0-42-0.1-63.1,0.1C33.9,301,29.2,305.5,29,314c-0.2,8.3,4.8,13.7,13.9,14.5
		c3.3,0.3,6.7,0.1,10.1,0.1c23.5,0,47-0.2,70.6,0.2c5.1,0.1,10.1,2.4,15.9,3.8c2,12,4.6,22.6,5.2,33.4c0.6,10.9,8.3,21.1,4.2,32
		c-2.1,0.7-2.8,1.1-3.7,1.1c-1.2,0.1-2.5,0.2-3.8,0c-27.4-4.5-46.5,8-59.4,30.7c-12.4,21.8-23.3,44.5-34.8,66.8
		c-0.5,1-0.3,2.5-0.5,3.5c5.5,11.9,6.2,12.3,20.6,12c2.7-3.8,6.5-8.2,9.2-13.2c9.8-18,19.4-36.2,28.8-54.5
		c7-13.6,17.7-19.4,32.9-17.7c17.6,2,29.8,11.8,40,25.5c11.7,15.8,23.6,31.6,36.2,46.7c7.6,9.1,16,17.5,25.7,24.2
		c30.8,23.4,62.9,27.3,95.8,0.7c5.9-4.1,11-9.3,15.6-14.9c15.8-19.1,31-38.6,46-58.2c7.6-9.9,16.5-17.6,28.6-21.6
		c20.5-6.8,33.9-1.9,44.2,17c10,18.4,19.8,37,29.5,55.5c3.3,6.2,6.9,11.8,15,11c7.7-0.8,11.7-5.7,13.4-13.3
		c-0.4-1.4-0.6-3.1-1.3-4.5c-12.5-23.7-24.5-47.7-37.9-70.9c-9.5-16.3-25-24.3-44-25c-6.2-0.2-12.4,0-19.9,0c0-4.5-0.5-7.7,0.1-10.8
		c2.4-13.6,5.1-27.1,7.6-40.7c2.6-14,7.5-18.6,22.1-18.8c24-0.3,47.9-0.2,71.9,0c8.2,0.1,14.9-1.8,18.7-9.3c2-9.1-1.3-15-9.9-18.5
		c-26.9,0-54.2,0.1-81.6,0c-12.5-0.1-19.2-5.6-21.3-16.9c-1-5.5-2-11-2.9-16.4c-0.5-3.4-1.1-6.7-1.8-10c-0.7-3.9-1.5-7.9-2.3-11.8
		c-1.7-8.6,0.2-16,6.3-22c10.9-10.5,22.1-20.7,33.3-30.9c9.6-8.7,20.7-10.2,32.8-6.2c16.3,5.4,32.5,10.9,48.8,16.1
		c5,1.6,10.4,2.1,14.8,3c4-3.5,6.7-5.9,9.5-8.3c0-3.4,0-6.7,0-10.1C567.7,184.3,564.4,179.9,560.1,178.4z"/>
	<path class="st1" d="M298.8,83.4c-3.5-0.5-7-0.8-10.4-0.8c-15.4,0-30.8,5.7-47.3,9.1c-33.8-55-87.6-60.3-144.4-57.1
		c-6.4,6.6-6.1,11.8,0.9,17.5c5.1,0,10.9-0.2,16.8,0c13.4,0.5,27,0.1,40.1,2.2c25.8,4,47.5,16.1,63.4,37.2
		c3.6,4.7,5.3,10.8,7.8,16.3c-19.2,20.4-28.5,42.8-26.2,70.6c-13.2,10-20.6,18.4-20.6,18.4c-10.2,8-14.3,7.9-24.2-0.5
		c-10.6-9-20.9-18.1-31.4-27.3c-13.4-11.7-28.8-15-45.7-10c-20.8,6.2-41.7,12.5-62.3,19.4c-4.3,1.5-7.6,5.9-11.4,9v10.1
		c2.8,2.4,5.5,4.8,9.4,8.2c4.1-0.7,9-1.1,13.7-2.5c17.6-5.5,35-11.4,52.6-16.9c9.7-3.1,19.3-2.6,27.2,4.4
		c12.5,11.2,24.8,22.7,36.8,34.5c6.1,6,7.6,13,5.1,21.9c-3.2,11.2-4.7,22.9-6.3,34.5c-1.8,13.1-8.1,19-21.6,19.3
		c-4.6,0.1-9.2,0-13.9,0c-21,0-42-0.1-63.1,0.1C33.9,301,29.2,305.5,29,314c-0.2,8.3,4.8,13.7,13.9,14.5c3.3,0.3,6.7,0.1,10.1,0.1
		c23.5,0,47-0.2,70.6,0.2c5.1,0.1,10.1,2.4,15.9,3.8c2,12,4.6,22.6,5.2,33.4c0.6,10.9,8.3,21.1,4.2,32c-2.1,0.7-2.8,1.1-3.7,1.1
		c-1.2,0.1-2.5,0.2-3.8,0c-27.4-4.5-46.5,8-59.4,30.7c-12.4,21.8-23.3,44.5-34.8,66.8c-0.5,1-0.3,2.5-0.5,3.5
		c5.5,11.9,6.2,12.3,20.6,12c2.7-3.8,6.5-8.2,9.2-13.2c9.8-18,19.4-36.2,28.8-54.5c7-13.6,17.7-19.4,32.9-17.7
		c17.6,2,29.8,11.8,40,25.5c11.7,15.8,23.6,31.6,36.2,46.7c7.6,9.1,16,17.5,25.7,24.2c19,14.5,38.6,21.5,58.5,18.5
		C230.9,541.7,230.9,83.4,298.8,83.4z"/>
</g>
</svg>
