<?xml version="1.0" encoding="utf-8"?>
<!-- Generator: Adobe Illustrator 22.1.0, SVG Export Plug-In . SVG Version: 6.00 Build 0)  -->
<svg version="1.1" xmlns="http://www.w3.org/2000/svg" xmlns:xlink="http://www.w3.org/1999/xlink" x="0px" y="0px"
	 viewBox="0 0 634 531" style="enable-background:new 0 0 634 531;" xml:space="preserve">
<style type="text/css">
	.st0{display:none;}
	.st1{display:inline;}
	.st2{fill:#ED1C24;}
	.st3{fill:#FFFFFF;}
	.st4{fill:#2A2F45;}
	.st5{opacity:0.2;fill:#FFFFFF;}
</style>
<g id="Layer_1" class="st0">
	<g class="st1">
		<g>
			<circle class="st2" cx="177" cy="278" r="166.5"/>
		</g>
		<circle class="st3" cx="132.7" cy="192.9" r="33.2"/>
		<circle class="st3" cx="220.2" cy="371" r="31.5"/>
		<circle class="st3" cx="263.1" cy="263.8" r="54.3"/>
		<circle class="st3" cx="177.9" cy="245" r="18.8"/>
		<circle class="st3" cx="132.7" cy="333.3" r="33.2"/>
		<g>
			<path class="st3" d="M86.4,301.9c0-26.5-21.5-48.1-48.1-48.1c-10,0-19.4,3.1-27.1,8.4c-0.5,5.2-0.8,10.5-0.8,15.8
				c0,25.1,5.6,49,15.6,70.3c3.9,1,8,1.6,12.3,1.6C64.9,349.9,86.4,328.4,86.4,301.9z"/>
			<path class="st3" d="M331.3,340.6c-23.3,4.8-40.9,25.4-40.9,50.1c0,2.9,0.3,5.7,0.7,8.5C308.4,382.9,322.2,363,331.3,340.6z"/>
			<path class="st3" d="M216.1,134.8c8.8,0,16.5-5.1,20.1-12.5c-13.5-5.1-27.7-8.6-42.6-10c0,0,0,0,0,0
				C193.6,124.8,203.7,134.8,216.1,134.8z"/>
		</g>
	</g>
</g>
<g id="Layer_2">
	<path class="st4" d="M469,331.9c0.8-1.4,1.6-2.9,2.4-4.4c0.2,0.1,0.3,0.1,0.5,0.2c73.2,21.1,146.4-82.5,131.1-135.6
		c-38.4,64.8-89.7,69.7-113.2,68.1c0.1-2,0.2-4.1,0.2-6.1c67.4-14.1,111.8-116.7,88.9-164.1c-27.9,72.6-78.5,88.1-104.2,91.2
		c-0.9-1.9-1.8-3.8-2.7-5.6c47.1-26,70.7-104.3,49.9-139.5c-22.6,77.7-80.3,85.4-92.7,86.1c-28.7-23.6-65.6-37.8-105.7-37.8
		c-0.2,0-0.3,0-0.5,0c-0.2,0-0.3,0-0.5,0c-40.1,0-76.9,14.2-105.7,37.8c-12.4-0.8-70.1-8.5-92.7-86.1
		c-20.8,35.2,2.8,113.5,49.9,139.5c-0.9,1.9-1.8,3.7-2.7,5.6c-25.6-3.1-76.3-18.6-104.2-91.2C44.2,137.4,88.6,240,156,254.1
		c0,2.1,0.1,4.1,0.2,6.1c-23.5,1.6-74.8-3.3-113.2-68.1c-15.4,53.1,57.9,156.7,131.1,135.6c0.2-0.1,0.3-0.1,0.5-0.2
		c0.8,1.5,1.6,2.9,2.4,4.4c-19.4,8.8-65.9,21.6-120.3-23c3.4,50.8,99.5,117.5,156.2,76.2c2-1.4,3.8-2.9,5.4-4.2
		c28.5,22.9,64.7,36.6,104.1,36.6c0.2,0,0.3,0,0.5,0c0.2,0,0.3,0,0.5,0c39.4,0,75.6-13.7,104.1-36.6c1.7,1.4,3.4,2.8,5.4,4.2
		c56.8,41.3,152.8-25.4,156.2-76.2C534.8,353.6,488.3,340.8,469,331.9z"/>
	<ellipse class="st3" cx="282" cy="365" rx="20" ry="10"/>
	<ellipse class="st3" cx="364" cy="365" rx="20" ry="10"/>
	<path class="st5" d="M323.5,84.5c0.2,0-0.3,0-0.5,0c-0.2,0-0.3,0-0.5,0c-40.1,0-76.9,14.2-105.7,37.8c-12.4-0.8-70.1-8.5-92.7-86.1
		c-20.8,35.2,2.8,113.5,49.9,139.5c-0.9,1.9-1.8,3.7-2.7,5.6c-25.6-3.1-76.3-18.6-104.2-91.2C44.2,137.4,88.6,240,156,254.1
		c0,2.1,0.1,4.1,0.2,6.1c-23.5,1.6-74.8-3.3-113.2-68.1c-15.4,53.1,57.9,156.7,131.1,135.6c0.2-0.1,0.3-0.1,0.5-0.2
		c0.8,1.5,1.6,2.9,2.4,4.4c-19.4,8.8-65.9,21.6-120.3-23c3.4,50.8,99.5,117.5,156.2,76.2c2-1.4,3.8-2.9,5.4-4.2
		c28.5,22.9,64.7,36.6,104.1,36.6c0.2,0,0.3,0,0.5,0c0.2,0,0.3,0,0.5,0c19.2,0-64.5-27.5-64.5-160.5S322.5,84.5,323.5,84.5z"/>
</g>
</svg>
